<svg width="602" height="90" viewBox="0 0 602 90" fill="none" xmlns="http://www.w3.org/2000/svg">
<path fill-rule="evenodd" clip-rule="evenodd" d="M20 0C8.95431 0 0 8.9543 0 20V70C0 81.0457 8.9543 90 20 90H287C298.046 90 307 81.0457 307 70C307 81.0457 315.954 90 327 90H413C420.916 90 427.759 85.4006 431 78.7282C434.241 85.4006 441.084 90 449 90H582C593.046 90 602 81.0457 602 70V20C602 8.95431 593.046 0 582 0H449C441.084 0 434.241 4.59941 431 11.2718C427.759 4.59941 420.916 0 413 0H327C315.954 0 307 8.9543 307 20C307 8.95431 298.046 0 287 0H20ZM34.376 21.64H18.824V69H28.296V52.168H34.632C44.808 52.168 52.936 47.304 52.936 36.488C52.936 25.224 44.808 21.64 34.376 21.64ZM43.656 36.488C43.656 41.928 40.456 44.68 33.992 44.68H28.296V29.128H33.672C40.264 29.128 43.656 30.92 43.656 36.488ZM58.5035 51.144C58.5035 62.92 66.7595 69.896 75.7195 69.896C84.6795 69.896 92.9355 62.92 92.9355 51.144C92.9355 39.176 84.6795 32.264 75.7195 32.264C66.7595 32.264 58.5035 39.176 58.5035 51.144ZM83.3355 51.144C83.3355 57.864 80.5835 62.216 75.7195 62.216C70.8555 62.216 68.1035 57.864 68.1035 51.144C68.1035 44.232 70.8555 39.944 75.7195 39.944C80.5835 39.944 83.3355 44.232 83.3355 51.144ZM108.486 33.16H100.806V69H110.15V47.624C112.198 42.44 115.59 40.584 118.406 40.584C119.878 40.584 120.902 40.712 122.118 41.16L123.782 33.032C122.694 32.584 121.542 32.264 119.558 32.264C115.718 32.264 112.006 34.824 109.382 39.496H109.126L108.486 33.16ZM130.025 56.456C130.025 64.52 133.289 69.896 141.801 69.896C144.937 69.896 147.369 69.256 149.353 68.552L147.817 61.704C146.857 62.152 145.513 62.472 144.297 62.472C141.033 62.472 139.433 60.488 139.433 56.456V40.584H148.265V33.16H139.433V23.56H131.561L130.473 33.16L124.969 33.608V40.584H130.025V56.456ZM170.916 24.456C172.132 24.456 173.476 24.776 174.692 25.224L176.42 18.312C174.82 17.608 172.388 17.032 169.636 17.032C160.612 17.032 157.156 22.792 157.156 30.28V33.224L152.356 33.608V40.584H157.156V69H166.564V40.584H173.284V33.16H166.564V30.088C166.564 25.992 168.1 24.456 170.916 24.456ZM177.128 51.144C177.128 62.92 185.385 69.896 194.344 69.896C203.305 69.896 211.561 62.92 211.561 51.144C211.561 39.176 203.305 32.264 194.344 32.264C185.385 32.264 177.128 39.176 177.128 51.144ZM201.96 51.144C201.96 57.864 199.208 62.216 194.344 62.216C189.48 62.216 186.729 57.864 186.729 51.144C186.729 44.232 189.48 39.944 194.344 39.944C199.208 39.944 201.96 44.232 201.96 51.144ZM219.431 17.928V69H228.775V17.928H219.431ZM238.786 27.4H248.13V18.312H238.786V27.4ZM238.723 33.16V69H248.066V33.16H238.723ZM255.066 51.144C255.066 62.92 263.322 69.896 272.282 69.896C281.242 69.896 289.498 62.92 289.498 51.144C289.498 39.176 281.242 32.264 272.282 32.264C263.322 32.264 255.066 39.176 255.066 51.144ZM279.898 51.144C279.898 57.864 277.146 62.216 272.282 62.216C267.418 62.216 264.666 57.864 264.666 51.144C264.666 44.232 267.418 39.944 272.282 39.944C277.146 39.944 279.898 44.232 279.898 51.144ZM347.192 25.224C345.976 24.776 344.632 24.456 343.416 24.456C340.6 24.456 339.064 25.992 339.064 30.088V33.16H345.784V40.584H339.064V69H329.656V40.584H324.856V33.608L329.656 33.224V30.28C329.656 22.792 333.112 17.032 342.136 17.032C344.888 17.032 347.32 17.608 348.92 18.312L347.192 25.224ZM366.845 69.896C357.884 69.896 349.629 62.92 349.629 51.144C349.629 39.176 357.884 32.264 366.845 32.264C375.805 32.264 384.06 39.176 384.06 51.144C384.06 62.92 375.805 69.896 366.845 69.896ZM366.845 62.216C371.708 62.216 374.461 57.864 374.461 51.144C374.461 44.232 371.708 39.944 366.845 39.944C361.98 39.944 359.229 44.232 359.229 51.144C359.229 57.864 361.98 62.216 366.845 62.216ZM391.931 33.16H399.611L400.251 39.496H400.507C403.131 34.824 406.843 32.264 410.683 32.264C412.667 32.264 413.819 32.584 414.907 33.032L413.243 41.16C412.027 40.712 411.003 40.584 409.531 40.584C406.715 40.584 403.323 42.44 401.275 47.624V69H391.931V33.16ZM443.92 29.512H457.232V69H466.704V29.512H480.144V21.64H443.92V29.512ZM484.816 51.144C484.816 62.92 493.072 69.896 502.032 69.896C510.992 69.896 519.248 62.92 519.248 51.144C519.248 39.176 510.992 32.264 502.032 32.264C493.072 32.264 484.816 39.176 484.816 51.144ZM509.648 51.144C509.648 57.864 506.896 62.216 502.032 62.216C497.168 62.216 494.416 57.864 494.416 51.144C494.416 44.232 497.168 39.944 502.032 39.944C506.896 39.944 509.648 44.232 509.648 51.144ZM523.727 64.84C527.31 67.848 532.495 69.896 537.359 69.896C546.703 69.896 551.63 64.84 551.63 58.568C551.63 51.848 546.383 49.608 541.646 47.752C541.43 47.6748 541.214 47.5984 540.999 47.5226C537.478 46.2781 534.351 45.173 534.351 42.76C534.351 40.712 535.823 39.304 539.086 39.304C541.839 39.304 544.271 40.584 546.831 42.376L551.055 36.68C548.047 34.44 544.206 32.264 538.831 32.264C530.831 32.264 525.518 36.808 525.518 43.272C525.518 49.224 530.766 52.04 535.31 53.704C535.713 53.8676 536.114 54.0268 536.51 54.1841C539.835 55.5028 542.799 56.6783 542.799 59.08C542.799 61.32 541.198 62.856 537.615 62.856C534.286 62.856 531.279 61.448 528.015 58.952L523.727 64.84ZM555.414 64.84C558.998 67.848 564.182 69.896 569.046 69.896C578.39 69.896 583.318 64.84 583.318 58.568C583.318 51.848 578.07 49.608 573.334 47.752C573.117 47.6748 572.901 47.5984 572.686 47.5226C569.165 46.2781 566.038 45.173 566.038 42.76C566.038 40.712 567.51 39.304 570.774 39.304C573.526 39.304 575.958 40.584 578.518 42.376L582.742 36.68C579.734 34.44 575.894 32.264 570.518 32.264C562.518 32.264 557.206 36.808 557.206 43.272C557.206 49.224 562.454 52.04 566.998 53.704C567.4 53.8676 567.802 54.0268 568.198 54.1841C571.523 55.5028 574.486 56.6783 574.486 59.08C574.486 61.32 572.886 62.856 569.302 62.856C565.974 62.856 562.966 61.448 559.702 58.952L555.414 64.84Z" fill="#202632"/>
</svg>
