<svg width="42" height="42" viewBox="0 0 42 42" fill="none" xmlns="http://www.w3.org/2000/svg">
<path fill-rule="evenodd" clip-rule="evenodd" d="M41.1213 5.12132C42.2929 3.94975 42.2929 2.05025 41.1213 0.87868C39.9497 -0.292893 38.0503 -0.292893 36.8787 0.878679L21 16.7574L5.12132 0.87868C3.94975 -0.292893 2.05025 -0.292893 0.878681 0.87868C-0.292892 2.05025 -0.292892 3.94975 0.878681 5.12132L16.7574 21L0.878681 36.8787C-0.292893 38.0503 -0.292893 39.9497 0.87868 41.1213C2.05025 42.2929 3.94975 42.2929 5.12132 41.1213L21 25.2426L36.8787 41.1213C38.0503 42.2929 39.9497 42.2929 41.1213 41.1213C42.2929 39.9497 42.2929 38.0503 41.1213 36.8787L25.2426 21L41.1213 5.12132Z" fill="white"/>
</svg>
